External Loads File
version=1
nRows=77
nColumns=13
Range=5.000000e-03-10 seconds
endheader
time 	forceRightX 	forceRightY 	forceRightZ 	pointRightX 	pointRightY 	pointRightZ 	forceLeftX 	forceLeftY 	forceLeftZ 	pointLeftX 	pointLeftY 	pointLeftZ 		
5.005000 -203.805477 702.507322 -0.000000 0.471714 0.300011 -0.193717 64.578644 17.838589 -0.000000 0.176566 0.347676 -0.442380
5.010000 -189.614936 710.102883 -0.000000 0.470396 0.289243 -0.193453 62.821898 15.771490 -0.000000 0.178914 0.358556 -0.442081
5.015000 -173.026057 714.200375 -0.000000 0.468509 0.278601 -0.193187 60.565103 12.748434 -0.000000 0.181858 0.369410 -0.441924
5.020000 -154.178796 714.646402 -0.000000 0.466026 0.268078 -0.192866 57.841920 8.625570 -0.000000 0.185463 0.380316 -0.441845
5.025000 -134.602215 711.161981 -0.000000 0.462785 0.257877 -0.192414 54.649780 3.439589 -0.000000 0.189511 0.390919 -0.441831
5.030000 -114.973158 703.841209 -0.000000 0.459140 0.248147 -0.192132 50.946530 -2.724602 -0.000000 0.194064 0.401261 -0.441773
5.035000 -94.649358 693.077027 -0.000000 0.454901 0.238686 -0.191867 46.624228 -9.729812 -0.000000 0.199246 0.411345 -0.441700
5.040000 -74.131248 679.115844 -0.000000 0.449930 0.229651 -0.192093 41.588545 -17.278898 -0.000000 0.204820 0.421166 -0.441552
5.045000 -53.965650 662.244499 -0.000000 0.444671 0.220969 -0.191771 35.872214 -25.147210 -0.000000 0.210838 0.430666 -0.441428
5.050000 -34.131387 642.736773 -0.000000 0.438912 0.212716 -0.191692 29.614801 -33.286702 -0.000000 0.217288 0.439819 -0.441150
5.055000 -14.729921 620.712023 -0.000000 0.432678 0.204874 -0.191415 22.990889 -41.733509 -0.000000 0.224249 0.448510 -0.441051
5.060000 4.363264 596.136052 -0.000000 0.425899 0.197453 -0.190966 16.098301 -50.538883 -0.000000 0.231636 0.456944 -0.440577
5.065000 21.664932 568.850150 -0.000000 0.419173 0.190539 -0.190981 9.078142 -59.651691 -0.000000 0.239548 0.464656 -0.440362
5.070000 37.833023 538.652836 -0.000000 0.411699 0.184137 -0.190753 1.814773 -68.966686 -0.000000 0.247502 0.471962 -0.440169
5.075000 52.249397 505.520003 -0.000000 0.403833 0.178481 -0.190547 -5.743244 -78.223806 -0.000000 0.255833 0.478624 -0.439863
5.080000 64.936522 469.695750 -0.000000 0.395570 0.173453 -0.189810 -13.727611 -87.067553 -0.000000 0.264594 0.484498 -0.439890
5.085000 75.068181 431.860384 -0.000000 0.387045 0.169083 -0.189876 -22.050244 -95.071571 -0.000000 0.273569 0.488709 -0.439808
5.090000 84.036829 392.690534 -0.000000 0.378061 0.165347 -0.189699 -30.951655 -101.664374 -0.000000 0.282918 0.492936 -0.439689
5.095000 91.492464 353.415573 -0.000000 0.368679 0.162338 -0.189247 -40.186699 -106.366668 -0.000000 0.292483 0.496858 -0.439656
5.100000 97.646078 315.213824 -0.000000 0.358920 0.160057 -0.189074 -49.477255 -108.769021 -0.000000 0.302372 0.499709 -0.439854
5.105000 102.572798 279.052237 -0.000000 0.348799 0.158360 -0.188989 -58.426780 -108.563700 -0.000000 0.312255 0.501666 -0.439898
5.110000 106.544291 245.545345 -0.000000 0.338507 0.157438 -0.188973 -66.733753 -105.437328 -0.000000 0.322375 0.502983 -0.440058
5.115000 109.458882 215.225937 -0.000000 0.328002 0.157246 -0.189063 -74.033761 -99.125202 -0.000000 0.332309 0.503618 -0.440335
5.120000 111.390304 188.274072 -0.000000 0.317383 0.157748 -0.189223 -80.146548 -89.277093 -0.000000 0.341932 0.503217 -0.440771
5.125000 112.330883 164.536105 -0.000000 0.306784 0.158924 -0.189349 -85.039638 -75.505133 -0.000000 0.351103 0.502270 -0.441187
5.130000 112.362685 143.537768 -0.000000 0.296363 0.160800 -0.189239 -88.950132 -57.308010 -0.000000 0.360023 0.500665 -0.441798
5.135000 111.380535 124.905405 -0.000000 0.286144 0.163412 -0.189368 -92.221740 -34.297797 -0.000000 0.368333 0.498255 -0.442236
5.140000 109.550516 108.159844 -0.000000 0.276117 0.166562 -0.189516 -95.392201 -6.048149 -0.000000 0.376216 0.495074 -0.442657
5.145000 107.006543 92.955794 -0.000000 0.266397 0.170508 -0.189639 -98.929803 27.610944 -0.000000 0.383645 0.491163 -0.443145
5.150000 104.068281 78.828392 -0.000000 0.256888 0.175120 -0.189869 -103.048700 66.672321 -0.000000 0.390965 0.486268 -0.443688
5.155000 100.883506 65.552547 -0.000000 0.247668 0.180300 -0.190403 -107.678271 110.541260 -0.000000 0.398120 0.480375 -0.444264
5.160000 97.510959 53.085064 -0.000000 0.238794 0.186251 -0.190552 -112.798741 158.080055 -0.000000 0.404745 0.474027 -0.444775
5.165000 93.971129 41.532531 -0.000000 0.230378 0.192595 -0.190705 -118.819719 207.721151 -0.000000 0.410554 0.467585 -0.444861
5.170000 90.461486 30.666563 -0.000000 0.222482 0.199487 -0.190829 -125.642315 258.185503 -0.000000 0.416080 0.460610 -0.444932
5.175000 87.017586 20.398888 -0.000000 0.214991 0.206834 -0.190922 -133.123734 308.089579 -0.000000 0.421615 0.452947 -0.445110
5.180000 83.527653 10.808873 -0.000000 0.207962 0.214642 -0.190993 -141.321045 355.967640 -0.000000 0.427089 0.444668 -0.445135
5.185000 79.831278 1.986794 -0.000000 0.201533 0.222837 -0.191035 -150.061825 400.537024 -0.000000 0.432756 0.436001 -0.444781
5.190000 75.754441 -5.988962 -0.000000 0.195769 0.231475 -0.190944 -158.788422 440.812922 -0.000000 0.438563 0.426874 -0.444771
5.195000 71.160690 -12.956753 -0.000000 0.190584 0.240409 -0.190973 -167.116111 476.031791 -0.000000 0.443981 0.417062 -0.444921
5.200000 66.057260 -18.679085 -0.000000 0.186130 0.249554 -0.190963 -175.336513 505.651349 -0.000000 0.449030 0.407063 -0.445023
5.205000 60.576860 -23.067559 -0.000000 0.182170 0.259042 -0.190942 -183.241412 529.837910 -0.000000 0.453672 0.397115 -0.444920
5.210000 54.902031 -26.107933 -0.000000 0.178956 0.268824 -0.191070 -190.243262 549.333918 -0.000000 0.458137 0.386777 -0.444876
5.215000 49.305874 -27.690681 -0.000000 0.176278 0.278623 -0.190931 -196.996600 564.773340 -0.000000 0.462453 0.376189 -0.444791
5.220000 44.080698 -27.830947 -0.000000 0.174357 0.288792 -0.191032 -203.911505 577.110001 -0.000000 0.466009 0.365495 -0.444695
5.225000 39.512933 -26.653869 -0.000000 0.173017 0.299022 -0.191095 -211.252608 587.442731 -0.000000 0.469086 0.354695 -0.444558
5.230000 35.812802 -24.439905 -0.000000 0.172226 0.309474 -0.191140 -218.420077 596.992864 -0.000000 0.471680 0.343864 -0.444367
5.235000 33.102296 -21.598186 -0.000000 0.172146 0.320002 -0.191095 -224.486082 606.635710 -0.000000 0.473687 0.332867 -0.444236
5.240000 31.356910 -18.681733 -0.000000 0.172560 0.330906 -0.191131 -227.480527 617.069692 -0.000000 0.475436 0.321635 -0.444207
5.245000 30.507973 -16.087274 -0.000000 0.173458 0.341672 -0.191216 -228.716537 627.383153 -0.000000 0.476112 0.310755 -0.443738
5.250000 30.234579 -14.273333 -0.000000 0.174909 0.352495 -0.191425 -227.323267 637.467239 -0.000000 0.475891 0.300259 -0.443659
5.255000 30.087980 -13.597089 -0.000000 0.176846 0.363277 -0.191436 -222.392697 647.503177 -0.000000 0.475001 0.289580 -0.443738
5.260000 29.594409 -14.263437 -0.000000 0.179526 0.374180 -0.191705 -213.665133 657.628893 -0.000000 0.473643 0.278652 -0.443786
5.265000 28.369877 -16.270477 -0.000000 0.182870 0.384882 -0.191931 -202.666038 667.293415 -0.000000 0.471849 0.267797 -0.443772
5.270000 26.114552 -19.564851 -0.000000 0.186758 0.395423 -0.192161 -189.636758 676.078908 -0.000000 0.469449 0.257228 -0.443680
5.275000 22.646527 -24.033343 -0.000000 0.191241 0.405843 -0.192561 -174.221530 683.418041 -0.000000 0.466201 0.247057 -0.443505
5.280000 17.924251 -29.519923 -0.000000 0.196321 0.416085 -0.192703 -156.355242 688.552354 -0.000000 0.462250 0.237196 -0.443521
5.285000 12.057825 -35.877635 -0.000000 0.201761 0.425883 -0.192891 -137.136963 690.649386 -0.000000 0.457630 0.227746 -0.443540
5.290000 5.140596 -43.066704 -0.000000 0.207950 0.435380 -0.193182 -116.232321 689.489047 -0.000000 0.452412 0.218695 -0.443449
5.295000 -2.648780 -51.087166 -0.000000 0.214669 0.444335 -0.193342 -94.775750 684.777627 -0.000000 0.446700 0.209982 -0.443522
5.300000 -11.063562 -60.012029 -0.000000 0.221289 0.452790 -0.194430 -74.246393 676.394167 -0.000000 0.440521 0.201727 -0.443482
5.305000 -20.095447 -69.851443 -0.000000 0.228927 0.460752 -0.194684 -53.083039 664.646824 -0.000000 0.433808 0.193868 -0.443466
5.310000 -29.669724 -80.466956 -0.000000 0.237882 0.468195 -0.194133 -31.316041 649.587358 -0.000000 0.426667 0.186543 -0.443439
5.315000 -39.314308 -91.731015 -0.000000 0.246171 0.475027 -0.194501 -12.158386 631.229522 -0.000000 0.419093 0.179643 -0.443407
5.320000 -49.068310 -103.195227 -0.000000 0.254755 0.481515 -0.194862 5.615121 609.898404 -0.000000 0.411256 0.173387 -0.443378
5.325000 -58.776306 -114.313189 -0.000000 0.263305 0.487448 -0.195263 21.680763 585.765143 -0.000000 0.403047 0.167536 -0.443389
5.330000 -68.506320 -124.253471 -0.000000 0.272418 0.492792 -0.195621 37.085690 558.906383 -0.000000 0.394342 0.162191 -0.442885
5.335000 -77.802311 -132.317128 -0.000000 0.281797 0.497491 -0.195895 50.561390 529.551519 -0.000000 0.385620 0.157500 -0.442959
5.340000 -86.422123 -137.633409 -0.000000 0.291246 0.501620 -0.196069 62.303608 498.039877 -0.000000 0.376618 0.153547 -0.443022
5.345000 -94.117345 -139.379465 -0.000000 0.300957 0.504985 -0.196288 72.555704 464.857706 -0.000000 0.367362 0.150267 -0.443080
5.350000 -100.485036 -137.027607 -0.000000 0.310794 0.507694 -0.196321 81.091160 430.697343 -0.000000 0.357939 0.147842 -0.443162
5.355000 -105.179382 -130.352137 -0.000000 0.320546 0.509561 -0.196480 87.864478 396.341072 -0.000000 0.348307 0.146100 -0.443278
5.360000 -108.138522 -119.299913 -0.000000 0.330508 0.510797 -0.196628 93.418740 362.470123 -0.000000 0.338442 0.145043 -0.443334
5.365000 -109.053020 -104.403998 -0.000000 0.339935 0.511329 -0.196403 97.057298 330.004013 -0.000000 0.328497 0.144712 -0.443281
5.370000 -108.301359 -85.863013 -0.000000 0.349252 0.511214 -0.196385 99.571345 299.357420 -0.000000 0.318419 0.145148 -0.443271
5.375000 -106.240723 -64.075101 -0.000000 0.358296 0.510436 -0.196313 101.057672 270.967341 -0.000000 0.308263 0.146338 -0.443258
5.380000 -103.426852 -39.389745 -0.000000 0.366912 0.509113 -0.196195 101.616497 245.152154 -0.000000 0.298132 0.148106 -0.443123
5.385000 -100.564233 -11.977671 -0.000000 0.375128 0.507193 -0.196119 101.559424 222.002123 -0.000000 0.288152 0.150675 -0.442991
